# xmcd
#
# Track frame offsets: 
#        150
#        31933
#        49128
#        69268
#        87000
#        112704
#        136435
#        155314
#
# Disc length: 2394 seconds
#
# Revision: 1
# Processed by: cddbd v1.5.2PL0 Copyright (c) Steve Scherf et al.
# Submitted via: ExactAudioCopyFreeDBPlugin 1.0
#
DISCID=57095808
DTITLE=Richard "Dimples" Fields - Mr. Look So Good
DYEAR=1982
DGENRE=Soul
TTITLE0=If It Ain't One Thing...It's Another
TTITLE1=After I Put My Lovin' On You
TTITLE2=Baby Work Out
TTITLE3=Mr. Look So Good
TTITLE4=Taking Applications
TTITLE5=(A Woman At Home And) A Freak On The Side
TTITLE6=Sincerely
TTITLE7=The Lady Is Bad
EXTD=
EXTT0=
EXTT1=
EXTT2=
EXTT3=
EXTT4=
EXTT5=
EXTT6=
EXTT7=
PLAYORDER=
